# xmcd
#
# Track frame offsets:
#	150
#	23309
#	45258
#	73082
#	97278
#	114899
#	143135
#	156201
#	178631
#	204542
#	221948
#
# Disc length: 3248 seconds
# Revision: 0
# Processed by: cddbd v1.5.2PL0 Copyright (c) Steve Scherf et al.
# Submitted via: dBpowerAMP V12.0
#
DISCID=970cae0b
DTITLE=Stephen Fearing - Between Hurricanes
DYEAR=2013
DGENRE=Rock
TTITLE0=The Crow Flies
TTITLE1=Don't You Wish Your Bread Was Dough
TTITLE2=Cold Dawn
TTITLE3=Wheel of Love
TTITLE4=The Half-life of Children
TTITLE5=The Fool
TTITLE6=Keep Your Mouth Shut
TTITLE7=Just In Time to Say Goodbye
TTITLE8=These Golden Days
TTITLE9=Just To Be With You
TTITLE10=Early Morning Rain (Bonus Track)
EXTD=
EXTT0=
EXTT1=
EXTT2=
EXTT3=
EXTT4=
EXTT5=
EXTT6=
EXTT7=
EXTT8=
EXTT9=
EXTT10=
PLAYORDER=
